<svg xmlns="http://www.w3.org/2000/svg" xmlns:xlink="http://www.w3.org/1999/xlink" width="231.293" height="50" viewBox="0 0 231.293 50">
  <defs>
    <clipPath id="clip-path">
      <rect id="Rectangle_2" data-name="Rectangle 2" width="161.293" height="20" fill="#bdca3d"/>
    </clipPath>
    <clipPath id="clip-path-2">
      <rect id="Rectangle_884" data-name="Rectangle 884" width="50" height="50" fill="none"/>
    </clipPath>
  </defs>
  <g id="Group_1097" data-name="Group 1097" transform="translate(-140 -20)">
    <g id="Group_4" data-name="Group 4" transform="translate(210 35)">
      <g id="Group_3" data-name="Group 3" clip-path="url(#clip-path)">
        <path id="Path_12" data-name="Path 12" d="M1.821,4.473A1.9,1.9,0,0,1,.534,4.012,1.633,1.633,0,0,1,0,2.706a1.623,1.623,0,0,1,.548-1.26A1.84,1.84,0,0,1,1.821.951a1.888,1.888,0,0,1,1.24.449A1.6,1.6,0,0,1,3.6,2.706a1.647,1.647,0,0,1-.528,1.3,1.825,1.825,0,0,1-1.253.468M3.6,8.194V18.6a2.325,2.325,0,0,1-.514,1.636,1.7,1.7,0,0,1-1.306.554,1.626,1.626,0,0,1-1.286-.567A2.393,2.393,0,0,1,0,18.6V8.3A2.312,2.312,0,0,1,.495,6.69a1.662,1.662,0,0,1,1.286-.541,1.725,1.725,0,0,1,1.306.541,2.1,2.1,0,0,1,.514,1.5" transform="translate(0 -0.793)" fill="#bdca3d"/>
        <path id="Path_13" data-name="Path 13" d="M46.752,34.186v.435a6.3,6.3,0,0,1,2.078-1.84,5.537,5.537,0,0,1,2.592-.587,5.175,5.175,0,0,1,2.546.62,3.942,3.942,0,0,1,1.676,1.755,4.179,4.179,0,0,1,.462,1.425,14.762,14.762,0,0,1,.105,1.953v6.7a2.386,2.386,0,0,1-.495,1.636,1.644,1.644,0,0,1-1.286.554,1.661,1.661,0,0,1-1.306-.567,2.373,2.373,0,0,1-.5-1.623v-6a6,6,0,0,0-.495-2.724,2.015,2.015,0,0,0-1.972-.943,2.92,2.92,0,0,0-1.755.574,3.3,3.3,0,0,0-1.161,1.576,11.279,11.279,0,0,0-.264,3.008v4.512a2.339,2.339,0,0,1-.508,1.642,1.709,1.709,0,0,1-1.313.548,1.632,1.632,0,0,1-1.28-.567,2.373,2.373,0,0,1-.5-1.623V34.239a2.266,2.266,0,0,1,.449-1.537,1.553,1.553,0,0,1,1.227-.508,1.664,1.664,0,0,1,.857.224,1.607,1.607,0,0,1,.613.673,2.373,2.373,0,0,1,.231,1.1" transform="translate(-36.159 -26.838)" fill="#bdca3d"/>
        <path id="Path_14" data-name="Path 14" d="M175.493,7.986h.4V5.822q0-.871.046-1.365a2.013,2.013,0,0,1,.257-.851,1.625,1.625,0,0,1,.607-.6,1.723,1.723,0,0,1,.884-.231,1.778,1.778,0,0,1,1.24.515,1.523,1.523,0,0,1,.468.838,7.6,7.6,0,0,1,.1,1.405V7.986h1.319a1.688,1.688,0,0,1,1.167.363,1.2,1.2,0,0,1,.4.93,1.041,1.041,0,0,1-.574,1.016,3.724,3.724,0,0,1-1.642.29h-.673v6.623a10.742,10.742,0,0,0,.059,1.3,1.322,1.322,0,0,0,.317.739,1.082,1.082,0,0,0,.838.284,4.474,4.474,0,0,0,.858-.112,4.468,4.468,0,0,1,.844-.112,1.086,1.086,0,0,1,.785.35,1.175,1.175,0,0,1,.35.864,1.446,1.446,0,0,1-.95,1.332,6.421,6.421,0,0,1-2.731.462,4.717,4.717,0,0,1-2.559-.567,2.632,2.632,0,0,1-1.141-1.57,10.647,10.647,0,0,1-.27-2.678V10.585h-.475a1.714,1.714,0,0,1-1.187-.369,1.207,1.207,0,0,1-.409-.937,1.163,1.163,0,0,1,.429-.93,1.881,1.881,0,0,1,1.247-.363" transform="translate(-144.9 -2.313)" fill="#bdca3d"/>
        <path id="Path_15" data-name="Path 15" d="M243.314,2.19V7.533a7.7,7.7,0,0,1,1.339-1.253,4.827,4.827,0,0,1,1.445-.693,6.06,6.06,0,0,1,1.7-.231,4.993,4.993,0,0,1,2.434.581A4.144,4.144,0,0,1,251.9,7.625a4.133,4.133,0,0,1,.514,1.445,11.407,11.407,0,0,1,.132,1.84v6.9a2.386,2.386,0,0,1-.495,1.636,1.674,1.674,0,0,1-1.313.554q-1.781,0-1.781-2.19V11.728a5.576,5.576,0,0,0-.515-2.658,2.029,2.029,0,0,0-1.953-.93,2.927,2.927,0,0,0-1.735.548,3.293,3.293,0,0,0-1.154,1.5,9.575,9.575,0,0,0-.29,2.863V17.81a2.434,2.434,0,0,1-.482,1.629,1.671,1.671,0,0,1-1.339.561q-1.781,0-1.781-2.19V2.19A2.472,2.472,0,0,1,240.18.548,1.634,1.634,0,0,1,241.493,0a1.68,1.68,0,0,1,1.339.554,2.43,2.43,0,0,1,.482,1.636" transform="translate(-199.831 0)" fill="#bdca3d"/>
        <path id="Path_16" data-name="Path 16" d="M344.959,40.267h-7.045a4.777,4.777,0,0,0,.495,2.164,3.311,3.311,0,0,0,3.041,1.886,4.309,4.309,0,0,0,1.181-.152,3.837,3.837,0,0,0,1.036-.475,7.9,7.9,0,0,0,.924-.693q.422-.369,1.1-1a1.182,1.182,0,0,1,.791-.238,1.3,1.3,0,0,1,.9.3,1.085,1.085,0,0,1,.343.857,2.344,2.344,0,0,1-.382,1.141,4.53,4.53,0,0,1-1.154,1.253,6.571,6.571,0,0,1-1.939,1,8.352,8.352,0,0,1-2.685.4,7.182,7.182,0,0,1-5.4-1.979,7.368,7.368,0,0,1-1.926-5.369,8.958,8.958,0,0,1,.475-2.962,6.532,6.532,0,0,1,1.385-2.342,6.009,6.009,0,0,1,2.243-1.5,8.05,8.05,0,0,1,2.955-.521,7.008,7.008,0,0,1,3.621.891,5.858,5.858,0,0,1,2.262,2.3,6.053,6.053,0,0,1,.752,2.876q0,1.359-.778,1.761a4.849,4.849,0,0,1-2.19.4m-7.045-2.045h6.53a4.378,4.378,0,0,0-1-2.764,2.982,2.982,0,0,0-2.276-.917,2.882,2.882,0,0,0-2.21.93,4.626,4.626,0,0,0-1.049,2.751" transform="translate(-278.626 -26.705)" fill="#bdca3d"/>
        <path id="Path_17" data-name="Path 17" d="M471.41,34.437l2.348,8.048L475.9,35q.343-1.174.508-1.6a2.086,2.086,0,0,1,.62-.818,1.856,1.856,0,0,1,1.247-.389,1.879,1.879,0,0,1,1.26.389,2.224,2.224,0,0,1,.64.844q.185.455.515,1.577l2.137,7.48,2.375-8.048q.237-.871.383-1.26a1.675,1.675,0,0,1,.488-.686,1.468,1.468,0,0,1,.989-.3,1.58,1.58,0,0,1,1.122.449,1.406,1.406,0,0,1,.475,1.055,5.5,5.5,0,0,1-.409,1.675L485.3,44q-.383,1.1-.594,1.583a2.359,2.359,0,0,1-.666.871,2.225,2.225,0,0,1-2.533-.026,2.467,2.467,0,0,1-.693-1q-.224-.594-.488-1.544l-2.058-7.019-1.992,7.019a8.613,8.613,0,0,1-.857,2.21,1.755,1.755,0,0,1-1.623.746,2.052,2.052,0,0,1-1.009-.231,1.939,1.939,0,0,1-.693-.66,4.953,4.953,0,0,1-.488-1.016q-.211-.587-.33-.93l-2.915-8.628a6.1,6.1,0,0,1-.435-1.675,1.439,1.439,0,0,1,.462-1.042,1.542,1.542,0,0,1,1.135-.462,1.318,1.318,0,0,1,1.214.508,7.517,7.517,0,0,1,.673,1.735" transform="translate(-390.077 -26.838)" fill="#bdca3d"/>
        <path id="Path_18" data-name="Path 18" d="M611.95,40.267H604.9a4.777,4.777,0,0,0,.495,2.164,3.311,3.311,0,0,0,3.041,1.886,4.309,4.309,0,0,0,1.181-.152,3.838,3.838,0,0,0,1.036-.475A7.9,7.9,0,0,0,611.58,43q.422-.369,1.1-1a1.182,1.182,0,0,1,.791-.238,1.3,1.3,0,0,1,.9.3,1.085,1.085,0,0,1,.343.857,2.344,2.344,0,0,1-.382,1.141,4.53,4.53,0,0,1-1.154,1.253,6.571,6.571,0,0,1-1.939,1,8.352,8.352,0,0,1-2.685.4,7.182,7.182,0,0,1-5.4-1.979,7.368,7.368,0,0,1-1.926-5.369A8.956,8.956,0,0,1,601.7,36.4a6.532,6.532,0,0,1,1.385-2.342,6.009,6.009,0,0,1,2.243-1.5,8.051,8.051,0,0,1,2.955-.521,7.007,7.007,0,0,1,3.621.891,5.859,5.859,0,0,1,2.263,2.3,6.054,6.054,0,0,1,.752,2.876q0,1.359-.778,1.761a4.85,4.85,0,0,1-2.19.4M604.9,38.222h6.53a4.378,4.378,0,0,0-1-2.764,2.982,2.982,0,0,0-2.276-.917,2.883,2.883,0,0,0-2.21.93,4.627,4.627,0,0,0-1.049,2.751" transform="translate(-501.198 -26.705)" fill="#bdca3d"/>
        <path id="Path_19" data-name="Path 19" d="M708.454,40.267h-7.045a4.777,4.777,0,0,0,.495,2.164,3.311,3.311,0,0,0,3.041,1.886,4.309,4.309,0,0,0,1.181-.152,3.838,3.838,0,0,0,1.035-.475,7.9,7.9,0,0,0,.924-.693q.422-.369,1.1-1a1.182,1.182,0,0,1,.791-.238,1.3,1.3,0,0,1,.9.3,1.084,1.084,0,0,1,.343.857,2.344,2.344,0,0,1-.382,1.141,4.529,4.529,0,0,1-1.154,1.253,6.571,6.571,0,0,1-1.939,1,8.353,8.353,0,0,1-2.685.4,7.182,7.182,0,0,1-5.4-1.979,7.368,7.368,0,0,1-1.926-5.369A8.956,8.956,0,0,1,698.2,36.4a6.533,6.533,0,0,1,1.385-2.342,6.009,6.009,0,0,1,2.243-1.5,8.05,8.05,0,0,1,2.955-.521,7.007,7.007,0,0,1,3.621.891,5.859,5.859,0,0,1,2.263,2.3,6.054,6.054,0,0,1,.752,2.876q0,1.359-.778,1.761a4.849,4.849,0,0,1-2.19.4m-7.045-2.045h6.53a4.378,4.378,0,0,0-1-2.764,2.982,2.982,0,0,0-2.276-.917,2.883,2.883,0,0,0-2.21.93,4.626,4.626,0,0,0-1.049,2.751" transform="translate(-581.646 -26.705)" fill="#bdca3d"/>
        <path id="Path_20" data-name="Path 20" d="M803.979,17.942v-.356a9.175,9.175,0,0,1-1.431,1.352,5.387,5.387,0,0,1-1.531.791,5.752,5.752,0,0,1-1.8.271,5.306,5.306,0,0,1-2.395-.548,5.583,5.583,0,0,1-1.906-1.563A7.121,7.121,0,0,1,793.7,15.5a10.19,10.19,0,0,1-.416-2.968,7.737,7.737,0,0,1,1.649-5.264,5.485,5.485,0,0,1,4.34-1.886,5.832,5.832,0,0,1,2.625.534,7.324,7.324,0,0,1,2.084,1.643V2.243a2.691,2.691,0,0,1,.442-1.676A1.5,1.5,0,0,1,805.681,0a1.56,1.56,0,0,1,1.26.521,2.322,2.322,0,0,1,.442,1.537V17.942a2.206,2.206,0,0,1-.475,1.543,1.594,1.594,0,0,1-1.227.515,1.571,1.571,0,0,1-1.22-.534,2.2,2.2,0,0,1-.481-1.524m-7.085-5.29a6.145,6.145,0,0,0,.455,2.493A3.476,3.476,0,0,0,798.6,16.7a3.079,3.079,0,0,0,1.728.521,3.19,3.19,0,0,0,1.735-.495,3.4,3.4,0,0,0,1.253-1.517,6.132,6.132,0,0,0,.468-2.553,5.973,5.973,0,0,0-.468-2.474,3.721,3.721,0,0,0-1.267-1.583,3.027,3.027,0,0,0-1.748-.547,2.949,2.949,0,0,0-1.768.561,3.6,3.6,0,0,0-1.207,1.61,6.4,6.4,0,0,0-.429,2.434" transform="translate(-661.301)" fill="#bdca3d"/>
        <path id="Path_21" data-name="Path 21" d="M907.6,42.128a4.177,4.177,0,0,1-2.869,4.162,9.61,9.61,0,0,1-3.45.548,8.413,8.413,0,0,1-3.325-.594,4.841,4.841,0,0,1-2.045-1.484,2.989,2.989,0,0,1-.66-1.787,1.385,1.385,0,0,1,.422-1.016,1.448,1.448,0,0,1,1.069-.422,1.247,1.247,0,0,1,.871.277,3.031,3.031,0,0,1,.58.778,3.947,3.947,0,0,0,1.326,1.438,4,4,0,0,0,2.1.475,3.04,3.04,0,0,0,1.774-.481,1.354,1.354,0,0,0,.693-1.1,1.5,1.5,0,0,0-.719-1.385,8.888,8.888,0,0,0-2.368-.831,19.613,19.613,0,0,1-3.028-.97,4.982,4.982,0,0,1-1.867-1.339,3.068,3.068,0,0,1-.7-2.045,3.607,3.607,0,0,1,.647-2.045,4.434,4.434,0,0,1,1.906-1.537,7.3,7.3,0,0,1,3.041-.574,10,10,0,0,1,2.513.29,6.28,6.28,0,0,1,1.86.778,3.845,3.845,0,0,1,1.135,1.082,2.117,2.117,0,0,1,.389,1.161,1.34,1.34,0,0,1-.416,1.016,1.645,1.645,0,0,1-1.181.4,1.446,1.446,0,0,1-.943-.317,6.2,6.2,0,0,1-.891-.95,3.261,3.261,0,0,0-.963-.844,3.037,3.037,0,0,0-1.5-.317,2.946,2.946,0,0,0-1.623.416,1.212,1.212,0,0,0-.646,1.036,1.121,1.121,0,0,0,.475.93,3.939,3.939,0,0,0,1.28.6q.8.238,2.216.58a11.852,11.852,0,0,1,2.737.976,4.552,4.552,0,0,1,1.609,1.339,2.969,2.969,0,0,1,.547,1.761" transform="translate(-746.311 -26.838)" fill="#bdca3d"/>
      </g>
    </g>
    <g id="Group_306" data-name="Group 306" transform="translate(140 20)">
      <g id="Group_306-2" data-name="Group 306" clip-path="url(#clip-path-2)">
        <path id="Path_4639" data-name="Path 4639" d="M50,25A25,25,0,1,1,25,0,25,25,0,0,1,50,25" transform="translate(0 0.001)" fill="#fff"/>
        <path id="Path_4640" data-name="Path 4640" d="M104.567,356.566a.6.6,0,0,1-.8-.626l.341-3.237-3.273-.345a.6.6,0,0,1,.126-1.193l4.467.471-.467,4.431a.6.6,0,0,1-.39.5" transform="translate(-89.615 -313.769)" fill="#fff"/>
        <path id="Path_4641" data-name="Path 4641" d="M127.782,338.344a.6.6,0,0,1-.8-.626l.342-3.237-3.274-.345a.6.6,0,0,1,.126-1.193l4.467.471-.467,4.431a.6.6,0,0,1-.39.5" transform="translate(-110.358 -297.487)" fill="#fff"/>
        <path id="Path_4642" data-name="Path 4642" d="M104.567,356.566a.6.6,0,0,1-.8-.626l.341-3.237-3.273-.345a.6.6,0,0,1,.126-1.193l4.467.471-.467,4.431a.6.6,0,0,1-.39.5" transform="translate(-89.615 -313.769)" fill="#bdca3d"/>
        <path id="Path_4643" data-name="Path 4643" d="M127.782,338.344a.6.6,0,0,1-.8-.626l.342-3.237-3.274-.345a.6.6,0,0,1,.126-1.193l4.467.471-.467,4.431a.6.6,0,0,1-.39.5" transform="translate(-110.358 -297.487)" fill="#bdca3d"/>
        <path id="Path_4644" data-name="Path 4644" d="M122.559,327.54c-.116-.083-.237-.17-.35-.243a1.7,1.7,0,0,1-.572-.611,34.555,34.555,0,0,0-7.669,5.186.6.6,0,1,0,.806.889,33.581,33.581,0,0,1,7.809-5.2l-.024-.017" transform="translate(-101.657 -291.901)" fill="#bdca3d"/>
        <path id="Path_4645" data-name="Path 4645" d="M291.918,287.118a33.571,33.571,0,0,0-7.336.616c-.072.319-.133.654-.181,1.008-.011.083-.021.169-.03.256a32.6,32.6,0,0,1,7.509-.681.6.6,0,1,0,.038-1.2" transform="translate(-254.091 -256.533)" fill="#bdca3d"/>
        <path id="Path_4646" data-name="Path 4646" d="M157.956,223.074c.416.884,1.268,1.36,1.9,1.061a1.584,1.584,0,0,0,.4-2.142c-.416-.885-1.268-1.36-1.9-1.061a1.584,1.584,0,0,0-.4,2.142" transform="translate(-140.936 -197.328)" fill="#333"/>
        <path id="Path_4647" data-name="Path 4647" d="M288.561,223.074c-.416.884-1.268,1.36-1.9,1.061a1.584,1.584,0,0,1-.4-2.142c.416-.885,1.268-1.36,1.9-1.061a1.584,1.584,0,0,1,.4,2.142" transform="translate(-255.581 -197.328)" fill="#333"/>
        <path id="Path_4648" data-name="Path 4648" d="M75.751,118.681a9.139,9.139,0,0,1-4.741-1.473l-.024-.024c.19-1.673,1.662-4.324,2.387-5.547.158-.267-.029-.594-.3-.526a8.46,8.46,0,0,0-4.846,3.964,5.509,5.509,0,0,0-1.319-.606,7.959,7.959,0,0,0-4.565,0,5.726,5.726,0,0,0-1.381.642,8.488,8.488,0,0,0-4.866-4c-.272-.068-.459.259-.3.526.734,1.237,2.235,3.94,2.395,5.609a9.268,9.268,0,0,1-4.69,1.435c-1.37.1-9.08-.177-9.152.98s4.939,4.722,8.485,3.211a12.881,12.881,0,0,1,3.888-1.071c1.015-.357,2.31.41,2.957,1.786.678,1.441.39,3-.644,3.49a1.509,1.509,0,0,1-.271.1c.148.207.291.418.418.636a9.4,9.4,0,0,1,1.126,3.539c.027.2.045.4.065.612.009.1.018.194.028.293l-.008,1a.7.7,0,0,0,.332.579c.132.086.262.179.387.269.184.132.375.268.574.384a.373.373,0,0,1,.171.248.907.907,0,0,0,.036.1,4.544,4.544,0,0,0,1.322,1.746,8.235,8.235,0,0,0,.844.554c.128.076.26.156.387.236h0a.4.4,0,0,0,.36,0h0c.128-.081.26-.16.387-.236a8.248,8.248,0,0,0,.844-.554,4.545,4.545,0,0,0,1.321-1.746.886.886,0,0,0,.036-.1.373.373,0,0,1,.171-.248c.2-.116.389-.252.574-.384.126-.09.256-.183.387-.269a.7.7,0,0,0,.332-.579l-.008-1c.01-.1.019-.2.028-.293.019-.211.038-.411.065-.612a9.4,9.4,0,0,1,1.126-3.539c.128-.22.273-.433.422-.642a1.5,1.5,0,0,1-.25-.091c-1.034-.486-1.322-2.049-.644-3.49.65-1.381,1.95-2.148,2.967-1.782a12.938,12.938,0,0,1,3.853,1.068c3.546,1.51,8.557-2.054,8.485-3.211s-7.782-.879-9.152-.98M66.641,133.37a1.989,1.989,0,0,1-.692.655c-1.078.653-1.165.672-1.225.672s-.147-.019-1.224-.672a1.992,1.992,0,0,1-.693-.655.868.868,0,0,1-.121-.681.436.436,0,0,1,.218-.264,2.176,2.176,0,0,0,3.638,0,.433.433,0,0,1,.218.264.868.868,0,0,1-.121.681" transform="translate(-39.626 -99.272)" fill="#333"/>
        <path id="Path_4649" data-name="Path 4649" d="M214.263,351.885a9.136,9.136,0,0,1-.946.624c-.121.072-.246.147-.363.221a1.388,1.388,0,0,1-1.437,0c-.117-.074-.243-.149-.364-.222a9.148,9.148,0,0,1-.946-.624,4.991,4.991,0,0,1-.659-.623,7.875,7.875,0,0,1,.424,3.313,1.535,1.535,0,0,0,.749-.4s.723,1.577.244,2.456a2.627,2.627,0,0,0,1.782-2.049,1.6,1.6,0,0,1,.361.932s1.359-.413,1.881-4.323a5.009,5.009,0,0,1-.726.7" transform="translate(-187.234 -313.793)" fill="#333"/>
      </g>
    </g>
  </g>
</svg>
