<svg id="Goat" xmlns="http://www.w3.org/2000/svg" width="35.385" height="35.384" viewBox="0 0 35.385 35.384">
  <path id="Fill_1" data-name="Fill 1" d="M35.385,17.692A17.692,17.692,0,1,1,17.693,0,17.692,17.692,0,0,1,35.385,17.692" fill="#fefefe"/>
  <path id="Fill_3" data-name="Fill 3" d="M3.325.492a6.36,6.36,0,0,1-.667.44c-.085.051-.174.1-.256.156a.945.945,0,0,1-.507.141.936.936,0,0,1-.507-.141C1.3,1.036,1.217.983,1.132.932A6.47,6.47,0,0,1,.465.492,3.5,3.5,0,0,1,0,.053,5.564,5.564,0,0,1,.3,2.388,1.085,1.085,0,0,0,.827,2.1S1.337,3.216,1,3.835A1.851,1.851,0,0,0,2.255,2.391a1.123,1.123,0,0,1,.255.657S3.468,2.756,3.837,0a3.545,3.545,0,0,1-.512.492" transform="translate(15.849 26.399)" fill="#191919"/>
  <path id="Fill_5" data-name="Fill 5" d="M7.208.6C7.126.543,7.041.482,6.961.431A1.21,1.21,0,0,1,6.558,0Q5.822.37,5.121.778L2.21.471a.423.423,0,0,0-.089.842L3.945,1.5q-.453.3-.884.608L.467,1.84a.423.423,0,1,0-.089.841l1.7.18q-.481.388-.931.795a.423.423,0,1,0,.569.627q.437-.4.906-.774l-.179,1.7a.423.423,0,0,0,.376.466.416.416,0,0,0,.19-.024A.422.422,0,0,0,3.287,5.3L3.55,2.8q.395-.285.807-.556L4.189,3.839a.422.422,0,0,0,.376.465.416.416,0,0,0,.19-.023.422.422,0,0,0,.275-.353l.238-2.253Q6.21,1.111,7.225.614L7.208.6" transform="translate(7.646 24.559)" fill="#b8d637"/>
  <path id="Fill_7" data-name="Fill 7" d="M5.322.01A23.628,23.628,0,0,0,.149.444C.1.669.055.905.021,1.155c-.008.059-.014.119-.021.181A22.979,22.979,0,0,1,5.3.856.423.423,0,1,0,5.322.01" transform="translate(21.467 21.587)" fill="#b8d637"/>
  <path id="Fill_9" data-name="Fill 9" d="M22.144,5.345A6.435,6.435,0,0,1,18.8,4.306a.136.136,0,0,1-.017-.017A12.883,12.883,0,0,1,20.467.378c.112-.189-.02-.419-.212-.372a5.968,5.968,0,0,0-3.417,2.8,3.862,3.862,0,0,0-.929-.427,5.606,5.606,0,0,0-3.219,0,4.036,4.036,0,0,0-.974.452A5.989,5.989,0,0,0,8.285.006c-.192-.047-.324.183-.212.372A12.609,12.609,0,0,1,9.761,4.333,6.526,6.526,0,0,1,6.454,5.345C5.488,5.416.052,5.22,0,6.036S3.483,9.365,5.984,8.3a9.094,9.094,0,0,1,2.741-.756l-.008.917a4.533,4.533,0,0,0,1.449,2.871c.1.146.2.3.294.449a6.611,6.611,0,0,1,.794,2.495c.019.142.032.283.046.432.006.067.012.137.019.207l-.006.7a.5.5,0,0,0,.235.409c.093.06.184.126.273.189.13.093.264.189.4.271a.262.262,0,0,1,.121.175c.008.023.015.047.025.069a3.22,3.22,0,0,0,.932,1.232,5.81,5.81,0,0,0,.6.39c.09.054.183.11.273.167h0a.237.237,0,0,0,.127.031.233.233,0,0,0,.127-.031h0c.09-.057.183-.113.273-.167a5.8,5.8,0,0,0,.6-.39,3.21,3.21,0,0,0,.932-1.232.568.568,0,0,0,.025-.069.262.262,0,0,1,.121-.175c.14-.082.274-.178.4-.271.089-.063.181-.129.274-.189a.5.5,0,0,0,.234-.409l-.006-.7c.007-.07.013-.14.02-.207.013-.149.026-.29.045-.432a6.628,6.628,0,0,1,.794-2.495c.091-.155.193-.306.3-.453h-.005a4.53,4.53,0,0,0,1.444-2.866l-.008-.917,0-.008.033.01a9.138,9.138,0,0,1,2.717.754c2.5,1.064,6.034-1.449,5.983-2.265s-5.488-.62-6.454-.691" transform="translate(3.445 8.371)" fill="#191919"/>
</svg>
