<svg id="In_the_Weeds" data-name="In the Weeds" xmlns="http://www.w3.org/2000/svg" xmlns:xlink="http://www.w3.org/1999/xlink" width="133" height="16" viewBox="0 0 133 16">
  <defs>
    <clipPath id="clip-path">
      <path id="Clip_8" data-name="Clip 8" d="M0,0H11V16H0Z" fill="none"/>
    </clipPath>
    <clipPath id="clip-path-2">
      <path id="Clip_21" data-name="Clip 21" d="M0,0H11V12H0Z" fill="none"/>
    </clipPath>
  </defs>
  <path id="Fill_1" data-name="Fill 1" d="M1.483,16a1.381,1.381,0,0,1-1.071-.457A1.9,1.9,0,0,1,0,14.234V5.926a1.834,1.834,0,0,1,.412-1.3,1.412,1.412,0,0,1,1.071-.437,1.47,1.47,0,0,1,1.089.437A1.664,1.664,0,0,1,3,5.84v8.394a1.846,1.846,0,0,1-.428,1.319A1.451,1.451,0,0,1,1.483,16ZM1.516,2.84A1.619,1.619,0,0,1,.446,2.468,1.3,1.3,0,0,1,0,1.415,1.3,1.3,0,0,1,.456.4,1.57,1.57,0,0,1,1.516,0,1.612,1.612,0,0,1,2.55.362,1.278,1.278,0,0,1,3,1.415a1.316,1.316,0,0,1-.439,1.049A1.561,1.561,0,0,1,1.516,2.84Z" fill="#b8d637"/>
  <path id="Fill_3" data-name="Fill 3" d="M2.894,1.632v.357A5.331,5.331,0,0,1,4.674.481,4.922,4.922,0,0,1,6.9,0,4.594,4.594,0,0,1,9.078.508a3.3,3.3,0,0,1,1.436,1.438,3.308,3.308,0,0,1,.4,1.168A11.56,11.56,0,0,1,11,4.713V10.2a1.9,1.9,0,0,1-.424,1.341,1.441,1.441,0,0,1-1.1.454,1.453,1.453,0,0,1-1.119-.465,1.888,1.888,0,0,1-.43-1.33V5.286A4.737,4.737,0,0,0,7.5,3.054a1.753,1.753,0,0,0-1.69-.773,2.581,2.581,0,0,0-1.5.47,2.715,2.715,0,0,0-1,1.292,8.861,8.861,0,0,0-.226,2.465v3.7a1.865,1.865,0,0,1-.435,1.347A1.5,1.5,0,0,1,1.526,12a1.427,1.427,0,0,1-1.1-.465A1.888,1.888,0,0,1,0,10.2V1.675A1.8,1.8,0,0,1,.384.416,1.359,1.359,0,0,1,1.436,0a1.478,1.478,0,0,1,.735.183A1.339,1.339,0,0,1,2.7.735a1.874,1.874,0,0,1,.2.9" transform="translate(6 4)" fill="#b8d637"/>
  <path id="Fill_5" data-name="Fill 5" d="M1.379,4.267H1.7V2.5q0-.713.038-1.118a1.644,1.644,0,0,1,.212-.7,1.33,1.33,0,0,1,.5-.491A1.422,1.422,0,0,1,3.181,0,1.467,1.467,0,0,1,4.2.421a1.248,1.248,0,0,1,.385.686,6.21,6.21,0,0,1,.081,1.151V4.267H5.753a1.393,1.393,0,0,1,.961.3.978.978,0,0,1,.331.761.853.853,0,0,1-.472.832A3.078,3.078,0,0,1,5.222,6.4H4.668v5.424a8.674,8.674,0,0,0,.049,1.064,1.084,1.084,0,0,0,.26.6.893.893,0,0,0,.69.232,3.722,3.722,0,0,0,.706-.091,3.659,3.659,0,0,1,.694-.092.9.9,0,0,1,.646.286A.962.962,0,0,1,8,14.531a1.183,1.183,0,0,1-.781,1.091A5.3,5.3,0,0,1,4.972,16a3.9,3.9,0,0,1-2.106-.464,2.158,2.158,0,0,1-.939-1.286A8.681,8.681,0,0,1,1.7,12.057V6.4H1.314a1.413,1.413,0,0,1-.977-.3A.987.987,0,0,1,0,5.326a.951.951,0,0,1,.353-.761,1.551,1.551,0,0,1,1.025-.3" transform="translate(24)" fill="#b8d637"/>
  <g id="Group_9" data-name="Group 9" transform="translate(33)">
    <path id="Clip_8-2" data-name="Clip 8" d="M0,0H11V16H0Z" fill="none"/>
    <g id="Group_9-2" data-name="Group 9" clip-path="url(#clip-path)">
      <path id="Fill_7" data-name="Fill 7" d="M3.086,1.752V6.027a6.424,6.424,0,0,1,1.147-1A4.268,4.268,0,0,1,5.472,4.47,5.528,5.528,0,0,1,6.93,4.285a4.527,4.527,0,0,1,2.085.464A3.438,3.438,0,0,1,10.445,6.1a3.159,3.159,0,0,1,.442,1.156A8.5,8.5,0,0,1,11,8.728v5.52a1.829,1.829,0,0,1-.424,1.309A1.488,1.488,0,0,1,9.451,16q-1.526,0-1.527-1.752V9.383a4.2,4.2,0,0,0-.441-2.127,1.779,1.779,0,0,0-1.673-.744,2.63,2.63,0,0,0-1.486.438,2.667,2.667,0,0,0-.989,1.2,7.181,7.181,0,0,0-.249,2.29v3.81a1.861,1.861,0,0,1-.413,1.3A1.483,1.483,0,0,1,1.526,16Q0,16,0,14.248V1.752A1.89,1.89,0,0,1,.4.438,1.45,1.45,0,0,1,1.526,0,1.492,1.492,0,0,1,2.674.443a1.856,1.856,0,0,1,.413,1.309" fill="#b8d637"/>
    </g>
  </g>
  <path id="Fill_10" data-name="Fill 10" d="M6.416,12a6.581,6.581,0,0,1-4.728-1.618A5.823,5.823,0,0,1,0,5.989,6.917,6.917,0,0,1,.417,3.567,5.3,5.3,0,0,1,1.631,1.651,5.31,5.31,0,0,1,3.6.427,7.534,7.534,0,0,1,6.185,0,6.529,6.529,0,0,1,9.359.728a4.993,4.993,0,0,1,1.982,1.884A4.715,4.715,0,0,1,12,4.964a1.445,1.445,0,0,1-.682,1.442A4.545,4.545,0,0,1,9.4,6.734H3.226A3.731,3.731,0,0,0,3.659,8.5,2.876,2.876,0,0,0,4.781,9.659a3.141,3.141,0,0,0,1.543.388,4.091,4.091,0,0,0,1.034-.123,3.55,3.55,0,0,0,.907-.389,6.985,6.985,0,0,0,.81-.567c.252-.206.575-.482.958-.82a1.092,1.092,0,0,1,.694-.194,1.2,1.2,0,0,1,.786.248.862.862,0,0,1,.3.7,1.845,1.845,0,0,1-.336.934,3.836,3.836,0,0,1-1.012,1.025,5.94,5.94,0,0,1-1.7.814A7.851,7.851,0,0,1,6.416,12ZM6.08,2.05a2.628,2.628,0,0,0-1.936.76,3.661,3.661,0,0,0-.919,2.251H8.947A3.457,3.457,0,0,0,8.076,2.8,2.728,2.728,0,0,0,6.08,2.05Z" transform="translate(45 4)" fill="#b8d637"/>
  <path id="Fill_12" data-name="Fill 12" d="M3.025,1.838,5.064,8.432,6.921,2.3q.3-.962.442-1.314A1.716,1.716,0,0,1,7.9.319,1.68,1.68,0,0,1,8.983,0a1.7,1.7,0,0,1,1.094.319,1.834,1.834,0,0,1,.555.692q.161.373.447,1.292l1.857,6.13L15,1.838q.206-.714.332-1.032a1.378,1.378,0,0,1,.424-.563A1.331,1.331,0,0,1,16.614,0a1.415,1.415,0,0,1,.974.367A1.124,1.124,0,0,1,18,1.233a4.294,4.294,0,0,1-.355,1.373L15.09,9.676q-.333.9-.516,1.3a1.957,1.957,0,0,1-.579.714A1.7,1.7,0,0,1,12.913,12a1.705,1.705,0,0,1-1.117-.335,2.021,2.021,0,0,1-.6-.822q-.2-.487-.424-1.264L8.983,3.827,7.253,9.579a6.809,6.809,0,0,1-.745,1.811A1.558,1.558,0,0,1,5.1,12a1.87,1.87,0,0,1-.876-.189,1.655,1.655,0,0,1-.6-.54,3.973,3.973,0,0,1-.424-.832c-.122-.321-.218-.575-.286-.762L.378,2.605A4.758,4.758,0,0,1,0,1.233,1.15,1.15,0,0,1,.4.378,1.38,1.38,0,0,1,1.387,0,1.173,1.173,0,0,1,2.44.416a5.978,5.978,0,0,1,.585,1.422" transform="translate(64 4)" fill="#b8d637"/>
  <path id="Fill_14" data-name="Fill 14" d="M6.416,12a6.581,6.581,0,0,1-4.728-1.618A5.823,5.823,0,0,1,0,5.989,6.917,6.917,0,0,1,.417,3.567,5.292,5.292,0,0,1,1.631,1.651,5.31,5.31,0,0,1,3.6.427,7.534,7.534,0,0,1,6.185,0,6.529,6.529,0,0,1,9.359.728a4.993,4.993,0,0,1,1.982,1.884A4.715,4.715,0,0,1,12,4.964a1.445,1.445,0,0,1-.682,1.442A4.545,4.545,0,0,1,9.4,6.734H3.226A3.731,3.731,0,0,0,3.659,8.5,2.876,2.876,0,0,0,4.781,9.659a3.141,3.141,0,0,0,1.543.388,4.091,4.091,0,0,0,1.034-.123,3.55,3.55,0,0,0,.907-.389,6.985,6.985,0,0,0,.81-.567c.252-.206.575-.482.958-.82a1.092,1.092,0,0,1,.694-.194,1.2,1.2,0,0,1,.786.248.862.862,0,0,1,.3.7,1.845,1.845,0,0,1-.336.934,3.836,3.836,0,0,1-1.012,1.025,5.94,5.94,0,0,1-1.7.814A7.851,7.851,0,0,1,6.416,12ZM6.08,2.05a2.628,2.628,0,0,0-1.936.76,3.661,3.661,0,0,0-.919,2.251H8.947A3.457,3.457,0,0,0,8.076,2.8,2.728,2.728,0,0,0,6.08,2.05Z" transform="translate(82 4)" fill="#b8d637"/>
  <path id="Fill_16" data-name="Fill 16" d="M6.416,12a6.581,6.581,0,0,1-4.728-1.618A5.823,5.823,0,0,1,0,5.989,6.918,6.918,0,0,1,.416,3.567,5.316,5.316,0,0,1,1.63,1.651,5.331,5.331,0,0,1,3.6.427,7.526,7.526,0,0,1,6.185,0,6.527,6.527,0,0,1,9.358.728a4.99,4.99,0,0,1,1.983,1.884A4.715,4.715,0,0,1,12,4.964a1.444,1.444,0,0,1-.682,1.442A4.545,4.545,0,0,1,9.4,6.734H3.226A3.72,3.72,0,0,0,3.659,8.5,2.876,2.876,0,0,0,4.781,9.659a3.139,3.139,0,0,0,1.543.388,4.1,4.1,0,0,0,1.035-.123,3.541,3.541,0,0,0,.907-.389,6.9,6.9,0,0,0,.809-.567c.249-.2.572-.478.959-.82a1.1,1.1,0,0,1,.694-.194,1.2,1.2,0,0,1,.786.248.862.862,0,0,1,.3.7,1.845,1.845,0,0,1-.336.934,3.836,3.836,0,0,1-1.012,1.025,5.938,5.938,0,0,1-1.7.814A7.862,7.862,0,0,1,6.416,12ZM6.081,2.05a2.629,2.629,0,0,0-1.937.76,3.667,3.667,0,0,0-.919,2.251H8.948A3.462,3.462,0,0,0,8.076,2.8,2.727,2.727,0,0,0,6.081,2.05Z" transform="translate(95 4)" fill="#b8d637"/>
  <path id="Fill_18" data-name="Fill 18" d="M10.553,16a1.383,1.383,0,0,1-1.039-.427A1.7,1.7,0,0,1,9.1,14.354v-.285a7.712,7.712,0,0,1-1.219,1.082,4.727,4.727,0,0,1-1.3.633A5.214,5.214,0,0,1,5.052,16a4.766,4.766,0,0,1-2.038-.438,4.712,4.712,0,0,1-1.622-1.251A5.585,5.585,0,0,1,.354,12.4,7.735,7.735,0,0,1,0,10.027,5.976,5.976,0,0,1,1.4,5.816,4.83,4.83,0,0,1,5.1,4.306a5.253,5.253,0,0,1,2.234.428A6.2,6.2,0,0,1,9.1,6.048V1.794A2.068,2.068,0,0,1,9.481.454,1.318,1.318,0,0,1,10.553,0a1.373,1.373,0,0,1,1.072.418A1.785,1.785,0,0,1,12,1.647V14.354a1.7,1.7,0,0,1-.4,1.234A1.4,1.4,0,0,1,10.553,16ZM5.972,6.438a2.636,2.636,0,0,0-1.5.449A2.916,2.916,0,0,0,3.441,8.175a4.869,4.869,0,0,0-.365,1.947,4.674,4.674,0,0,0,.387,1.994,2.835,2.835,0,0,0,1.061,1.24,2.753,2.753,0,0,0,1.471.417,2.849,2.849,0,0,0,1.476-.4,2.776,2.776,0,0,0,1.067-1.213,4.667,4.667,0,0,0,.4-2.042,4.553,4.553,0,0,0-.4-1.979A3.028,3.028,0,0,0,7.46,6.876,2.709,2.709,0,0,0,5.972,6.438Z" transform="translate(108)" fill="#b8d637"/>
  <g id="Group_22" data-name="Group 22" transform="translate(122 4)">
    <path id="Clip_21-2" data-name="Clip 21" d="M0,0H11V12H0Z" fill="none"/>
    <g id="Group_22-2" data-name="Group 22" clip-path="url(#clip-path-2)">
      <path id="Fill_20" data-name="Fill 20" d="M11,8.14a3.413,3.413,0,0,1-.647,2.092,3.939,3.939,0,0,1-1.91,1.319A9.231,9.231,0,0,1,5.37,12a8.082,8.082,0,0,1-2.962-.487A4.314,4.314,0,0,1,.587,10.3,2.335,2.335,0,0,1,0,8.832,1.09,1.09,0,0,1,.376,8a1.351,1.351,0,0,1,.952-.346,1.177,1.177,0,0,1,.776.227,2.506,2.506,0,0,1,.517.638A3.359,3.359,0,0,0,3.8,9.7a3.815,3.815,0,0,0,1.875.389,2.884,2.884,0,0,0,1.58-.395,1.1,1.1,0,0,0,.617-.9,1.207,1.207,0,0,0-.641-1.135,8.384,8.384,0,0,0-2.109-.681,18.642,18.642,0,0,1-2.7-.795,4.446,4.446,0,0,1-1.663-1.1A2.389,2.389,0,0,1,.141,3.405,2.794,2.794,0,0,1,.717,1.73,3.9,3.9,0,0,1,2.415.47,7,7,0,0,1,5.124,0,9.632,9.632,0,0,1,7.362.238,5.858,5.858,0,0,1,9.02.876a3.31,3.31,0,0,1,1.01.886,1.643,1.643,0,0,1,.347.951,1.056,1.056,0,0,1-.37.833,1.548,1.548,0,0,1-1.052.324,1.362,1.362,0,0,1-.84-.259,5.3,5.3,0,0,1-.793-.778,2.842,2.842,0,0,0-.858-.692,2.908,2.908,0,0,0-1.34-.259,2.8,2.8,0,0,0-1.445.34A.987.987,0,0,0,3.1,3.07a.9.9,0,0,0,.423.762,3.654,3.654,0,0,0,1.141.492q.716.195,1.974.476a11.153,11.153,0,0,1,2.439.8,4,4,0,0,1,1.434,1.1A2.3,2.3,0,0,1,11,8.14" fill="#b8d637"/>
    </g>
  </g>
</svg>
